<?xml version="1.0" encoding="UTF-8" standalone="no"?>
<svg xmlns:inkscape="http://www.inkscape.org/namespaces/inkscape" xmlns:sodipodi="http://sodipodi.sourceforge.net/DTD/sodipodi-0.dtd" xmlns:xlink="http://www.w3.org/1999/xlink" xmlns="http://www.w3.org/2000/svg" xmlns:svg="http://www.w3.org/2000/svg" width="74.901123mm" height="64.915955mm" viewBox="0 0 74.901122 64.915955" version="1.1" id="svg3487" sodipodi:docname="_logo-cb-microsoft.svg" inkscape:version="1.2.1 (9c6d41e410, 2022-07-14)" xml:space="preserve">
  <defs id="defs3484">
    <linearGradient id="linearGradient8022">
      <stop style="stop-color:#fc8934;stop-opacity:1;" offset="0" id="stop8018"></stop>
      <stop style="stop-color:#fb651c;stop-opacity:1;" offset="0.61949688" id="stop8020"></stop>
    </linearGradient>
    <linearGradient id="linearGradient7002">
      <stop style="stop-color:#013aaf;stop-opacity:1;" offset="0" id="stop6998"></stop>
      <stop style="stop-color:#24a8ef;stop-opacity:1;" offset="1" id="stop7000"></stop>
    </linearGradient>
    <linearGradient id="linearGradient6958">
      <stop style="stop-color:#fb651c;stop-opacity:1;" offset="0" id="stop6954"></stop>
      <stop style="stop-color:#fc8833;stop-opacity:1;" offset="1" id="stop6956"></stop>
    </linearGradient>
    <linearGradient xlink:href="#linearGradient8022" id="linearGradient23617" gradientUnits="userSpaceOnUse" gradientTransform="matrix(0.19226875,-0.50391152,0.50391152,0.19226875,-42.414221,191.26793)" x1="130.09738" y1="95.399918" x2="114.35001" y2="111.59956"></linearGradient>
    <linearGradient xlink:href="#linearGradient7002" id="linearGradient23619" gradientUnits="userSpaceOnUse" gradientTransform="matrix(-0.92766388,2.8661601e-4,2.8661601e-4,0.92766388,-6.228725,-63.018694)" x1="-14.204238" y1="246.15352" x2="-40.387943" y2="239.04745"></linearGradient>
    <linearGradient xlink:href="#linearGradient7002" id="linearGradient23621" gradientUnits="userSpaceOnUse" gradientTransform="matrix(1.1652029,-3.6000736e-4,3.6000736e-4,1.1652029,86.837199,-123.43917)" x1="-45.477989" y1="259.71884" x2="-23.800285" y2="234.75996"></linearGradient>
    <linearGradient xlink:href="#linearGradient6958" id="linearGradient23623" gradientUnits="userSpaceOnUse" gradientTransform="matrix(0.8289708,-2.5612327e-4,2.5612327e-4,0.8289708,92.928678,-37.949149)" x1="-26.116524" y1="246.40085" x2="-23.800285" y2="234.75996"></linearGradient>
  </defs>
  <g id="layer4" transform="translate(-6.6644343,-134.88702)" style="display:inline">
    <path id="rect6879-1-7-6-6-5-2-1-5-7-4-1-2-1-5-8-8-5-5-0-4" style="display:inline;fill:url(#linearGradient23617);fill-opacity:1;stroke:#ffffff;stroke-width:0.702862;stroke-linecap:round;stroke-dasharray:none;stroke-dashoffset:1.69739;stroke-opacity:1" d="m 51.147097,157.54348 c 2.40553,-6.16306 0.861745,-13.16838 -3.911595,-17.7494 -4.773348,-4.58096 -11.836188,-5.83547 -17.895101,-3.17855 -6.058952,2.65694 -9.920782,8.70205 -9.784753,15.31653 0.13603,6.61455 4.243171,12.49585 10.40619,14.90142 l 15.409875,5.88827 z"></path>
    <path id="rect6821-0-7-2-81-2" style="fill:url(#linearGradient23619);fill-opacity:1;stroke:#ffffff;stroke-width:0.702862;stroke-linecap:round;stroke-linejoin:bevel;stroke-dasharray:none;stroke-dashoffset:1.69739;stroke-opacity:1" d="m 17.540772,146.31187 c 2.409251,0.10163 4.702751,1.06143 6.466285,2.70604 l 0.0072,-0.007 c 7.26e-4,-6.6e-4 0.0018,-3.9e-4 0.0028,4.8e-4 l 0.248399,0.24823 23.575218,23.56066 c 4.76e-4,4.8e-4 6.6e-4,0.002 0,0.002 l -28.735087,0.008 -9.1271024,-9.27475 -0.248396,-0.24826 c -4.78e-4,-4.8e-4 -6.61e-4,-0.002 -1e-6,-0.002 l 0.0028,-0.003 c -2.377207,-2.54768 -3.274193,-6.14033 -2.37349,-9.50641 0.458594,-1.71359 1.360174,-3.27626 2.614118,-4.53098 v 6.6e-4 c 1.2539394,-1.25472 2.8160644,-2.15727 4.5293684,-2.61692 0.989766,-0.26489 2.014061,-0.37769 3.037751,-0.33458 z"></path>
    <path id="rect6821-0-2-4-5" style="fill:url(#linearGradient23621);fill-opacity:1;stroke:#ffffff;stroke-width:0.702862;stroke-linecap:round;stroke-linejoin:bevel;stroke-dasharray:none;stroke-dashoffset:1.69739;stroke-opacity:1" d="m 57.143669,139.51131 c -3.026089,0.12952 -5.906121,1.33686 -8.11995,3.40397 l -0.0091,-0.009 c -8.85e-4,-8.3e-4 -0.0022,-4.8e-4 -0.0035,6.1e-4 l -0.31181,0.31198 -29.593633,29.61192 c -5.98e-4,6.1e-4 -8.28e-4,0.003 1e-6,0.003 l 36.093036,-0.012 11.457001,-11.65675 0.31181,-0.31201 c 5.99e-4,-6.1e-4 8.29e-4,-0.003 -10e-7,-0.003 l -0.0035,-0.004 c 2.983941,-3.20189 4.107822,-7.71517 2.97387,-11.94247 -0.577353,-2.15201 -1.711003,-4.11414 -3.28701,-5.68916 l 1e-6,8.3e-4 c -1.575997,-1.57504 -3.538823,-2.70748 -5.691194,-3.2835 -1.243413,-0.33195 -2.530077,-0.47285 -3.81586,-0.4179 z"></path>
    <path id="rect6821-2-70-5" style="fill:url(#linearGradient23623);fill-opacity:1;stroke:#ffffff;stroke-width:0.702862;stroke-linecap:round;stroke-linejoin:bevel;stroke-dasharray:none;stroke-dashoffset:1.69739;stroke-opacity:1" d="m 71.803543,149.12406 c -2.152876,0.0922 -4.201843,0.95109 -5.776847,2.42172 l -0.0065,-0.007 c -6.62e-4,-6.1e-4 -0.0016,-3.4e-4 -0.0026,4.3e-4 l -0.221833,0.22197 -21.054063,21.06707 c -4.25e-4,4.3e-4 -6.1e-4,0.003 10e-7,0.003 l 25.677991,-0.009 8.150961,-8.29307 0.221831,-0.22197 c 4.31e-4,-4.3e-4 6.13e-4,-0.002 -10e-7,-0.002 l -0.0025,-0.003 c 2.122896,-2.27794 2.922466,-5.48886 2.115727,-8.49633 -0.410747,-1.53102 -1.21727,-2.92696 -2.3385,-4.04749 v 8.3e-4 c -1.121234,-1.12057 -2.517671,-1.92624 -4.048948,-2.33604 -0.884612,-0.23616 -1.799995,-0.33641 -2.714751,-0.29732 z"></path>
  </g>
  <rect style="fill:#ffffff;fill-opacity:1;fill-rule:evenodd;stroke:none;stroke-width:3.4161;paint-order:fill markers stroke" id="rect5127" width="51.617287" height="24.082296" x="12.441153" y="37.94326"></rect>
  <g id="g5138" transform="translate(-0.06340495,-1.5119495)">
    <rect style="fill:#f1521b;fill-opacity:1;fill-rule:evenodd;stroke:none;stroke-width:5.1166;paint-order:fill markers stroke" id="rect953" width="6.0195446" height="6.0195446" x="16.113802" y="45.130253"></rect>
    <rect style="fill:#80cd29;fill-opacity:1;fill-rule:evenodd;stroke:none;stroke-width:5.1166;paint-order:fill markers stroke" id="rect953-0" width="6.0195446" height="6.0195446" x="22.841949" y="45.130253"></rect>
    <rect style="fill:#00adef;fill-opacity:1;fill-rule:evenodd;stroke:none;stroke-width:5.1166;paint-order:fill markers stroke" id="rect953-4" width="6.0195446" height="6.0195446" x="16.113802" y="51.842918"></rect>
    <rect style="fill:#fabb07;fill-opacity:1;fill-rule:evenodd;stroke:none;stroke-width:5.1166;paint-order:fill markers stroke" id="rect953-6" width="6.0195446" height="6.0195446" x="22.841949" y="51.842918"></rect>
    <g aria-label="Microsoft" transform="scale(0.94187713,1.0617096)" id="text3957" style="font-weight:bold;font-size:7.40083px;font-family:'Fira Code';-inkscape-font-specification:'Fira Code Bold';text-align:center;text-anchor:middle;display:inline;fill:#6d6b6c;fill-rule:evenodd;stroke-width:1.18049;paint-order:fill markers stroke">
      <path d="m 38.430632,48.090096 h -0.85283 v -3.353501 q 0,-0.411961 0.05059,-1.008219 h -0.01445 q -0.0795,0.339687 -0.140934,0.487848 l -1.546658,3.873872 h -0.592644 l -1.550272,-3.844963 q -0.06505,-0.169843 -0.13732,-0.516757 h -0.01445 q 0.02891,0.310777 0.02891,1.015446 v 3.346274 h -0.795011 v -5.182027 h 1.210585 l 1.36236,3.451071 q 0.155388,0.397505 0.202366,0.592644 h 0.01807 q 0.133707,-0.408346 0.216822,-0.607099 l 1.387655,-3.436616 h 1.167221 z" style="font-weight:600;font-family:'Segoe UI';-inkscape-font-specification:'Segoe UI Semi-Bold'" id="path314"></path>
      <path d="m 40.035109,43.612738 q -0.205981,0 -0.354142,-0.133706 -0.144547,-0.133707 -0.144547,-0.339687 0,-0.20598 0.144547,-0.3433 0.148161,-0.13732 0.354142,-0.13732 0.213207,0 0.361368,0.13732 0.148161,0.13732 0.148161,0.3433 0,0.195139 -0.148161,0.336073 -0.148161,0.13732 -0.361368,0.13732 z m 0.415574,4.477358 h -0.838376 v -3.700415 h 0.838376 z" style="font-weight:600;font-family:'Segoe UI';-inkscape-font-specification:'Segoe UI Semi-Bold'" id="path316"></path>
      <path d="m 44.194462,47.920252 q -0.444484,0.256572 -1.051583,0.256572 -0.82392,0 -1.329836,-0.513143 -0.505917,-0.516758 -0.505917,-1.337064 0,-0.914263 0.542053,-1.467157 0.545667,-0.556508 1.456316,-0.556508 0.505916,0 0.892581,0.177071 v 0.780556 q -0.386665,-0.289095 -0.823921,-0.289095 -0.531212,0 -0.870898,0.361369 -0.339687,0.357755 -0.339687,0.939558 0,0.574576 0.318005,0.907036 0.321618,0.332459 0.860057,0.332459 0.451711,0 0.85283,-0.321618 z" style="font-weight:600;font-family:'Segoe UI';-inkscape-font-specification:'Segoe UI Semi-Bold'" id="path318"></path>
      <path d="m 47.172139,45.188305 q -0.151775,-0.119251 -0.437256,-0.119251 -0.37221,0 -0.621554,0.336073 -0.249345,0.336072 -0.249345,0.914262 v 1.770707 h -0.838375 v -3.700415 h 0.838375 v 0.762487 h 0.01445 q 0.122866,-0.390278 0.375824,-0.607099 0.256571,-0.220435 0.570962,-0.220435 0.227662,0 0.346914,0.06866 z" style="font-weight:600;font-family:'Segoe UI';-inkscape-font-specification:'Segoe UI Semi-Bold'" id="path320"></path>
      <path d="m 49.340351,48.176824 q -0.856443,0 -1.369587,-0.516757 -0.50953,-0.520371 -0.50953,-1.376815 0,-0.932331 0.531212,-1.456315 0.534826,-0.523985 1.438248,-0.523985 0.867284,0 1.351518,0.50953 0.484234,0.50953 0.484234,1.412951 0,0.885353 -0.523984,1.420179 -0.520371,0.531212 -1.402111,0.531212 z m 0.03975,-3.20534 q -0.491461,0 -0.776943,0.3433 -0.285481,0.343301 -0.285481,0.946786 0,0.581804 0.289095,0.917877 0.289095,0.332459 0.773329,0.332459 0.495075,0 0.758874,-0.328846 0.267413,-0.328845 0.267413,-0.935945 0,-0.610713 -0.267413,-0.943172 -0.263799,-0.332459 -0.758874,-0.332459 z" style="font-weight:600;font-family:'Segoe UI';-inkscape-font-specification:'Segoe UI Semi-Bold'" id="path322"></path>
      <path d="m 51.888,47.974458 v -0.776943 q 0.46978,0.357755 1.037128,0.357755 0.758874,0 0.758874,-0.448097 0,-0.126479 -0.06505,-0.213208 -0.06505,-0.09034 -0.177071,-0.159002 -0.10841,-0.06866 -0.260185,-0.122865 -0.148161,-0.05421 -0.332459,-0.122866 -0.227662,-0.09034 -0.41196,-0.191525 -0.180685,-0.101183 -0.30355,-0.227662 -0.119252,-0.130093 -0.180684,-0.292709 -0.06143,-0.162616 -0.06143,-0.379437 0,-0.267413 0.126479,-0.469779 0.126479,-0.20598 0.339687,-0.3433 0.213207,-0.140934 0.484234,-0.209594 0.271026,-0.07227 0.560121,-0.07227 0.513143,0 0.917876,0.155389 v 0.733578 q -0.390278,-0.267413 -0.896194,-0.267413 -0.159002,0 -0.289095,0.03252 -0.126479,0.03252 -0.216821,0.09034 -0.09034,0.05782 -0.140934,0.140933 -0.05059,0.0795 -0.05059,0.177071 0,0.119252 0.05059,0.202366 0.05059,0.08311 0.148161,0.148162 0.101184,0.06143 0.238504,0.115638 0.140933,0.05059 0.321618,0.112024 0.238503,0.09757 0.426415,0.198753 0.191525,0.101183 0.325232,0.231275 0.133706,0.126479 0.20598,0.296323 0.07227,0.166229 0.07227,0.397505 0,0.281868 -0.130092,0.491462 -0.130093,0.209593 -0.346914,0.346914 -0.216821,0.13732 -0.502303,0.202366 -0.281867,0.06866 -0.596258,0.06866 -0.607099,0 -1.051583,-0.202366 z" style="font-weight:600;font-family:'Segoe UI';-inkscape-font-specification:'Segoe UI Semi-Bold'" id="path324"></path>
      <path d="m 56.950775,48.176824 q -0.856443,0 -1.369587,-0.516757 -0.509529,-0.520371 -0.509529,-1.376815 0,-0.932331 0.531211,-1.456315 0.534826,-0.523985 1.438248,-0.523985 0.867284,0 1.351518,0.50953 0.484234,0.50953 0.484234,1.412951 0,0.885353 -0.523984,1.420179 -0.520371,0.531212 -1.402111,0.531212 z m 0.03975,-3.20534 q -0.491461,0 -0.776943,0.3433 -0.285481,0.343301 -0.285481,0.946786 0,0.581804 0.289095,0.917877 0.289095,0.332459 0.773329,0.332459 0.495075,0 0.758874,-0.328846 0.267413,-0.328845 0.267413,-0.935945 0,-0.610713 -0.267413,-0.943172 -0.263799,-0.332459 -0.758874,-0.332459 z" style="font-weight:600;font-family:'Segoe UI';-inkscape-font-specification:'Segoe UI Semi-Bold'" id="path326"></path>
      <path d="m 61.699159,43.294734 q -0.169843,-0.09757 -0.386664,-0.09757 -0.610713,0 -0.610713,0.690214 v 0.502303 h 0.860057 v 0.657691 h -0.856444 v 3.042724 H 59.86702 v -3.042724 h -0.632395 v -0.657691 h 0.632395 v -0.599872 q 0,-0.585418 0.383051,-0.92149 0.383051,-0.339687 0.957627,-0.339687 0.310777,0 0.491461,0.06866 z" style="font-weight:600;font-family:'Segoe UI';-inkscape-font-specification:'Segoe UI Semi-Bold'" id="path328"></path>
      <path d="m 64.246809,48.050345 q -0.245731,0.122865 -0.64685,0.122865 -1.076879,0 -1.076879,-1.033514 v -2.092324 h -0.61794 v -0.657691 h 0.61794 v -0.856444 l 0.838375,-0.238503 v 1.094947 h 0.885354 v 0.657691 h -0.885354 v 1.850207 q 0,0.328845 0.119252,0.469779 0.119252,0.140934 0.397506,0.140934 0.213207,0 0.368596,-0.122865 z" style="font-weight:600;font-family:'Segoe UI';-inkscape-font-specification:'Segoe UI Semi-Bold'" id="path330"></path>
    </g>
    <g aria-label="Partner" transform="scale(0.94461977,1.058627)" id="text3957-1" style="font-weight:bold;font-size:7.42238px;font-family:'Fira Code';-inkscape-font-specification:'Fira Code Bold';text-align:center;text-anchor:middle;display:inline;fill:#6d6b6c;fill-rule:evenodd;stroke-width:1.18393;paint-order:fill markers stroke" inkscape:label="text3957-1">
      <path d="m 33.62907,52.686456 v 1.884589 h -0.858938 v -5.197116 h 1.576531 q 0.89518,0 1.388072,0.416784 0.492892,0.416784 0.492892,1.174244 0,0.75746 -0.514637,1.239479 -0.514638,0.48202 -1.391696,0.48202 z m 0,-2.602182 v 1.899086 h 0.558128 q 0.554504,0 0.844441,-0.257319 0.289936,-0.257319 0.289936,-0.724842 0,-0.916925 -1.065517,-0.916925 z" style="font-weight:600;font-family:'Segoe UI';-inkscape-font-specification:'Segoe UI Semi-Bold'" id="path333"></path>
      <path d="m 39.648881,54.571045 h -0.815447 v -0.579874 h -0.0145 q -0.384166,0.666855 -1.127129,0.666855 -0.547256,0 -0.858938,-0.297185 -0.308058,-0.297185 -0.308058,-0.786454 0,-1.05102 1.210486,-1.224982 l 1.10176,-0.155841 q 0,-0.793702 -0.753836,-0.793702 -0.66323,0 -1.195989,0.45665 v -0.735714 q 0.587122,-0.347924 1.355454,-0.347924 1.406194,0 1.406194,1.384448 z m -0.811823,-1.822977 -0.779205,0.108726 q -0.362421,0.04711 -0.547256,0.177586 -0.18121,0.126848 -0.18121,0.449402 0,0.235574 0.166713,0.387791 0.170338,0.148592 0.453027,0.148592 0.384166,0 0.634236,-0.268191 0.253695,-0.271816 0.253695,-0.681352 z" style="font-weight:600;font-family:'Segoe UI';-inkscape-font-specification:'Segoe UI Semi-Bold'" id="path335"></path>
      <path d="m 42.827312,51.660805 q -0.152217,-0.119599 -0.438529,-0.119599 -0.373294,0 -0.623364,0.337052 -0.250071,0.337051 -0.250071,0.916925 v 1.775862 h -0.840816 v -3.71119 h 0.840816 v 0.764708 h 0.0145 q 0.123223,-0.391415 0.376918,-0.608867 0.257319,-0.221077 0.572625,-0.221077 0.228325,0 0.347924,0.06886 z" style="font-weight:600;font-family:'Segoe UI';-inkscape-font-specification:'Segoe UI Semi-Bold'" id="path337"></path>
      <path d="m 45.592584,54.531179 q -0.246447,0.123223 -0.648734,0.123223 -1.080014,0 -1.080014,-1.036524 v -2.098417 h -0.61974 v -0.659606 h 0.61974 v -0.858938 l 0.840816,-0.239197 v 1.098135 h 0.887932 v 0.659606 h -0.887932 v 1.855595 q 0,0.329803 0.119599,0.471147 0.119599,0.141344 0.398663,0.141344 0.213829,0 0.36967,-0.123223 z" style="font-weight:600;font-family:'Segoe UI';-inkscape-font-specification:'Segoe UI Semi-Bold'" id="path339"></path>
      <path d="m 49.622704,54.571045 h -0.840817 v -2.091169 q 0,-1.040148 -0.735714,-1.040148 -0.384166,0 -0.634237,0.289937 -0.25007,0.286313 -0.25007,0.724842 v 2.116538 h -0.844441 v -3.71119 h 0.844441 v 0.616115 h 0.0145 q 0.416784,-0.703096 1.203237,-0.703096 0.605243,0 0.924173,0.395039 0.318931,0.391414 0.318931,1.134377 z" style="font-weight:600;font-family:'Segoe UI';-inkscape-font-specification:'Segoe UI Semi-Bold'" id="path341"></path>
      <path d="m 53.790544,52.943775 h -2.529698 q 0.0145,0.514638 0.315306,0.793702 0.304434,0.279064 0.833568,0.279064 0.594371,0 1.090887,-0.355173 v 0.677728 q -0.507389,0.31893 -1.340957,0.31893 -0.819071,0 -1.286594,-0.503765 -0.463899,-0.507389 -0.463899,-1.424314 0,-0.866186 0.511014,-1.409818 0.514637,-0.547255 1.275721,-0.547255 0.761084,0 1.177868,0.489268 0.416784,0.489268 0.416784,1.359078 z m -0.811823,-0.59437 q -0.0036,-0.453026 -0.213828,-0.703097 -0.210204,-0.253694 -0.579874,-0.253694 -0.36242,0 -0.616115,0.264567 -0.25007,0.264567 -0.308058,0.692224 z" style="font-weight:600;font-family:'Segoe UI';-inkscape-font-specification:'Segoe UI Semi-Bold'" id="path343"></path>
      <path d="m 56.744275,51.660805 q -0.152217,-0.119599 -0.438529,-0.119599 -0.373294,0 -0.623364,0.337052 -0.250071,0.337051 -0.250071,0.916925 v 1.775862 h -0.840816 v -3.71119 h 0.840816 v 0.764708 h 0.0145 q 0.123223,-0.391415 0.376918,-0.608867 0.257319,-0.221077 0.572625,-0.221077 0.228325,0 0.347924,0.06886 z" style="font-weight:600;font-family:'Segoe UI';-inkscape-font-specification:'Segoe UI Semi-Bold'" id="path345"></path>
    </g>
  </g>
</svg>
