<?xml version="1.0" encoding="UTF-8"?>
<svg xmlns="http://www.w3.org/2000/svg" xmlns:xlink="http://www.w3.org/1999/xlink" version="1.1" id="Layer_1" x="0px" y="0px" viewBox="0 0 1920 1080" style="enable-background:new 0 0 1920 1080;" xml:space="preserve">
<style type="text/css">
	.st0{fill:#999999;}
	.st1{fill:#CCCCCC;}
	.st2{fill:#666666;}
	.st3{fill:#00EDDC;}
	.st4{fill:#7DFFF4;}
	.st5{fill:#00D3BD;}
	.st6{opacity:0.3;}
	.st7{fill:#131313;}
	.st8{fill:#9E9E9E;}
</style>
<g>
	<g>
		<g>
			<path class="st0" d="M39.7,554.5c-4.6-8-4.6-21,0-29l96-166.3L240.1,540L135.7,720.8L39.7,554.5z"></path>
			<path class="st1" d="M231.7,193c4.6-8,12.1-8,16.7,0l87.6,151.8c4.6,8,4.6,21,0,29l-96,166.3L135.7,359.2L231.7,193z"></path>
			<path class="st2" d="M135.7,720.8L240.1,540c119.2,225.6,135.4,122.3,8.4,347c-4.6,8-12.1,8-16.7,0L135.7,720.8z"></path>
			<path class="st3" d="M448.8,540l104.4-180.8c128.7,234.2,128.2,127.8,0,361.5L448.8,540z"></path>
			<path class="st4" d="M352.8,344.7c134.9-227.8,66.5-190.5,200.4,14.5L448.8,540l-96-166.3C348.2,365.7,348.2,352.7,352.8,344.7z"></path>
			<path class="st5" d="M352.8,735.3c-4.6-8-4.6-21,0-29l96-166.3l104.4,180.8C419.2,926,487.6,962.8,352.8,735.3z"></path>
			<g class="st6">
				<polygon class="st7" points="240.1,540 151.8,693 251.2,559.2     "></polygon>
				<polygon class="st7" points="536.2,691.4 448.8,540 437.6,559.4     "></polygon>
			</g>
		</g>
	</g>
	<g>
		<path class="st8" d="M840.2,460.4c0-0.4,0-0.4,0-0.4V282.7c0-13,10.7-24.2,24.2-24.2c13.9,0,24.6,11.2,24.6,24.2v84.2    c16.6-11.6,38-18.8,60-18.8c60.4,0,108.8,51,108.8,112.4c0,60.4-48.3,111.5-108.8,111.5c-22.4,0-43.9-7.6-60.9-19.2    c-2.2,10.7-11.6,19.2-23.7,19.2c-13.4,0-24.2-11.2-24.2-24.2V460.4z M889,460.4c0,17,6.7,33.1,17.9,44.3    c11.2,11.6,25.5,18.4,42.1,18.4c16.1,0,30.9-6.7,42.1-18.4c11.2-11.2,17.9-27.3,17.9-44.3c0-17.9-6.7-34-17.9-45.2    c-11.2-11.6-26-18.4-42.1-18.4c-16.6,0-30.9,6.7-42.1,18.4C895.7,426.4,889,442.5,889,460.4z"></path>
		<path class="st8" d="M1172,571.9c-51,0-93.1-42.1-93.1-93.1v-107c0-12.5,10.7-23.7,23.7-23.7c13.4,0,23.7,11.2,23.7,23.7v107    c0,25.5,20.1,45.7,45.7,45.7c26,0,46.6-20.1,47-45.7v-107c0-12.5,9.8-23.7,23.3-23.7c12.5,0,24.2,11.2,24.2,23.7v107    C1266.4,529.8,1223.4,571.9,1172,571.9z"></path>
		<path class="st8" d="M1339.2,292.1c0,13.4-10.3,24.6-24.2,24.6c-13.4,0-24.2-11.2-24.2-24.6v-9.4c0-13.4,10.7-24.2,24.2-24.2    c13.9,0,24.2,10.7,24.2,24.2V292.1z M1339.2,373.1v174.6c0,13.4-10.3,24.2-24.2,24.2c-13.4,0-24.2-10.7-24.2-24.2V373.1    c0-14.3,10.7-24.6,24.2-24.6C1328.9,348.5,1339.2,358.8,1339.2,373.1z"></path>
		<path class="st8" d="M1386,258.5c13.9,0,25.1,11.2,25.1,24.6v264.1c0,13.4-11.2,24.6-25.1,24.6c-13.4,0-24.6-11.2-24.6-24.6V283.1    C1361.4,269.7,1372.6,258.5,1386,258.5z"></path>
		<path class="st8" d="M1650.3,547.7c0,13-10.7,24.2-24.2,24.2c-12.1,0-21.5-8.5-23.7-19.2c-17,11.6-38.5,19.2-60.9,19.2    c-60.4,0-108.8-51-108.8-111.5c0-61.3,48.3-112.4,108.8-112.4c21.9,0,43.4,7.2,60,18.8v-84.2c0-13,10.7-24.2,24.6-24.2    c13.4,0,24.2,11.2,24.2,24.2V460c0,0,0,0,0,0.4V547.7z M1541.5,396.8c-16.1,0-30.9,6.7-42.1,18.4c-11.2,11.2-17.9,27.3-17.9,45.2    c0,17,6.7,33.1,17.9,44.3c11.2,11.6,26,18.4,42.1,18.4c16.6,0,30.9-6.7,42.1-18.4c11.2-11.2,17.9-27.3,17.9-44.3    c0-17.9-6.7-34-17.9-45.2C1572.4,403.6,1558.1,396.8,1541.5,396.8z"></path>
		<path class="st5" d="M1883.7,460.4v87.7c0,13-10.7,23.7-23.7,23.7c-11.6,0-20.6-8.5-23.3-19.2c-17,12.1-37.2,19.2-59.5,19.2    c-30.4,0-56.8-12.5-76.1-32.7c-19.2-20.6-30.4-48.3-30.4-78.8c0-30.9,11.2-58.6,30.4-78.8c19.2-20.6,45.7-33.6,76.1-33.6    c22.4,0,42.5,7.6,59.5,19.7c2.7-11.2,11.6-19.7,23.3-19.7c13,0,23.7,10.7,23.7,24.2V460.4z M1836.3,460.4    c0-18.8-6.7-34.9-17.5-46.1c-10.7-12.1-26-18.4-41.6-18.4c-16.1,0-31.3,6.3-41.6,18.4c-10.7,11.2-17,27.3-17,46.1    c0,18.4,6.3,34.5,17,46.1c10.3,11.2,25.5,17.5,41.6,17.5c15.7,0,30.9-6.3,41.6-17.5C1829.6,494.9,1836.3,478.8,1836.3,460.4z"></path>
		<path class="st8" d="M889.9,795.5c0,13.9-11.2,24.6-25.1,24.6c-11.2,0-20.6-8.1-23.7-18.4c-0.4-1.8-0.9-4-0.9-6.3V471.2    c0-13.9,11.2-24.6,24.6-24.6c13.9,0,25.1,10.7,25.1,24.6v138.1c14.3-7.6,30.4-13,47.9-13c54.2,0,97.6,44.3,97.6,98v101.2    c0,13.9-10.7,24.6-24.6,24.6c-13.9,0-24.6-10.7-24.6-24.6V694.3c0-26.4-21.5-47.9-48.3-48.3c-26.4,0.4-47.4,21.9-47.9,48.3V795.5z    "></path>
		<path class="st8" d="M1094.2,787.5c-19.2-19.7-30.9-47.5-30.9-78.8c0-30.4,11.6-56.8,30.9-78.3c20.1-21,46.1-34,77-34    c29.5,0,56.4,13,74.8,34c20.1,21.5,31.3,47.9,31.3,78.3c0,31.3-11.2,59.1-31.3,78.8c-18.4,21-45.2,34-74.8,34    C1140.3,821.5,1114.3,808.5,1094.2,787.5z M1112.1,708.7c0,19.2,5.8,34.9,16.1,47.4c11.2,10.7,26,16.6,43,16.6    c15.7,0,30-5.8,41.2-16.6c11.2-12.5,17.5-28.2,17.5-47.4c0-18.4-6.3-34.5-17.5-46.6c-11.2-9.8-25.5-17-41.2-17    c-17,0-31.8,7.2-43,17C1117.9,674.2,1112.1,690.3,1112.1,708.7z"></path>
		<path class="st8" d="M1495.7,689c0,0.4,0,0.9,0,1.3v106.1c0,13-10.7,23.7-23.7,23.7c-12.5,0-24.2-10.7-24.2-23.7V690.3    c0-0.4,0-0.9,0-1.3c-0.4-24.6-21-44.8-46.1-44.8c-24.6,0-45.2,20.6-45.2,46.1v106.1c0,0.9-0.4,2.2-0.4,3.1c0,0.4,0,1.3,0,1.3    c-0.4,0.9-0.4,1.8-1.3,2.7c0,0.4,0,1.3,0,2.2c-4,8.1-13,14.3-22.4,14.3c-1.8,0-3.1-0.4-4.5-0.4c-10.7-2.7-19.2-11.6-19.2-23.3    V690.3c0-0.4,0-0.4,0-0.4v-69.4c0-13.9,10.7-24.2,23.7-24.2c9.4,0,17.9,4.9,21.5,13.4c14.3-8.5,30.9-13.4,47.9-13.4    c28.2,0,53.3,11.6,70.3,30.9c16.6-19.2,42.1-30.9,70.3-30.9c51.5,0,93.1,42.1,93.1,94v106.1c0,13-10.7,23.7-23.7,23.7    c-13,0-24.2-10.7-24.2-23.7V690.3c0-25.5-20.6-46.1-45.2-46.1C1516.7,644.2,1496.6,664.4,1495.7,689z"></path>
		<path class="st8" d="M1666.3,708.2c0.4-60.9,47.9-111.9,109.2-111.9c58.2,0,104.3,43.4,107.9,103.8c0,0.4,0,1.3,0,2.2    c0,0.9,0,3.1-0.4,4c-1.3,10.7-10.7,17.9-23.3,17.9h-142.3c2.2,10.3,7.2,21.9,15.2,29.5c9.4,10.7,27.3,18.8,43,20.1    c16.1,1.3,35.4-2.7,46.6-11.2c9.4-9.8,27.8-8.5,33.6-1.3c5.8,6.3,10.3,19.7,0,29.1c-21.9,20.1-48.3,29.5-80.1,29.5    C1714.2,819.7,1666.8,769.1,1666.3,708.2z M1715.1,686.3h126.7c-4.5-17.9-27.3-44.3-66.2-47.4    C1737.5,640.6,1718.7,667.9,1715.1,686.3z"></path>
	</g>
</g>
</svg>
