<?xml version="1.0" encoding="UTF-8" standalone="no"?>
<!-- Created with Inkscape (http://www.inkscape.org/) -->

<svg
   width="74.900986mm"
   height="58.440639mm"
   viewBox="0 0 74.900985 58.44064"
   version="1.1"
   id="svg3487"
   xmlns:xlink="http://www.w3.org/1999/xlink"
   xmlns="http://www.w3.org/2000/svg"
   xmlns:svg="http://www.w3.org/2000/svg">
  <defs
     id="defs3484">
    <linearGradient
       id="linearGradient8022">
      <stop
         style="stop-color:#fc8934;stop-opacity:1;"
         offset="0"
         id="stop8018" />
      <stop
         style="stop-color:#fb651c;stop-opacity:1;"
         offset="0.61949688"
         id="stop8020" />
    </linearGradient>
    <linearGradient
       id="linearGradient7002">
      <stop
         style="stop-color:#013aaf;stop-opacity:1;"
         offset="0"
         id="stop6998" />
      <stop
         style="stop-color:#24a8ef;stop-opacity:1;"
         offset="1"
         id="stop7000" />
    </linearGradient>
    <linearGradient
       id="linearGradient6958">
      <stop
         style="stop-color:#fb651c;stop-opacity:1;"
         offset="0"
         id="stop6954" />
      <stop
         style="stop-color:#fc8833;stop-opacity:1;"
         offset="1"
         id="stop6956" />
    </linearGradient>
    <linearGradient
       xlink:href="#linearGradient8022"
       id="linearGradient1567"
       gradientUnits="userSpaceOnUse"
       gradientTransform="matrix(0.19242443,-0.50385209,0.50385209,0.19242443,87.95073,129.10368)"
       x1="130.09738"
       y1="95.399918"
       x2="114.35001"
       y2="111.59956" />
    <linearGradient
       xlink:href="#linearGradient7002"
       id="linearGradient1569"
       gradientUnits="userSpaceOnUse"
       gradientTransform="matrix(-0.92766392,0,0,0.92766392,124.21479,-125.17175)"
       x1="-14.204238"
       y1="246.15352"
       x2="-40.387943"
       y2="239.04745" />
    <linearGradient
       xlink:href="#linearGradient7002"
       id="linearGradient1571"
       gradientUnits="userSpaceOnUse"
       gradientTransform="matrix(1.165203,0,0,1.165203,217.29938,-185.56347)"
       x1="-45.477989"
       y1="259.71884"
       x2="-23.800285"
       y2="234.75996" />
    <linearGradient
       xlink:href="#linearGradient6958"
       id="linearGradient1573"
       gradientUnits="userSpaceOnUse"
       gradientTransform="matrix(0.82897084,0,0,0.82897084,223.36444,-100.07157)"
       x1="-26.116524"
       y1="246.40085"
       x2="-23.800285"
       y2="234.75996" />
  </defs>
  <g
     id="layer9"
     transform="translate(-233.67766,-64.088405)">
    <g
       aria-label="SYSTEMS"
       id="text5123-3-5-7-6-5-5-1-3-8-7-3"
       style="font-weight:bold;font-size:8.85935px;font-family:Comfortaa;-inkscape-font-specification:'Comfortaa Bold';text-align:end;text-anchor:end;fill:#ffffff;fill-opacity:1;stroke-width:0.402698;stroke-linecap:round;stroke-linejoin:bevel;stroke-dashoffset:1.69739"
       transform="translate(218.1214,-7.9977551)">
      <path
         d="m 40.905811,130.52652 q -0.558139,0 -1.027685,-0.15061 -0.460686,-0.15947 -0.797341,-0.44297 -0.336656,-0.29235 -0.531561,-0.68217 -0.05316,-0.10631 -0.0089,-0.20376 0.05316,-0.0975 0.168328,-0.13289 0.09745,-0.0354 0.194906,0.009 0.09745,0.0443 0.150608,0.14175 0.159469,0.2835 0.41639,0.49612 0.26578,0.21263 0.620154,0.3278 0.363234,0.10631 0.815061,0.10631 0.504983,0 0.868216,-0.16833 0.372093,-0.16833 0.566998,-0.49612 0.203765,-0.3278 0.203765,-0.79734 0,-0.58472 -0.425248,-0.98339 -0.41639,-0.40753 -1.275747,-0.5227 -0.992247,-0.14175 -1.550386,-0.63788 -0.558139,-0.50498 -0.558139,-1.22259 0,-0.5227 0.256921,-0.91251 0.265781,-0.38981 0.735326,-0.60244 0.478405,-0.22148 1.09856,-0.22148 0.460686,0 0.850497,0.15061 0.389812,0.15061 0.68217,0.39867 0.292359,0.2392 0.451827,0.50498 0.06201,0.0975 0.02658,0.21263 -0.02658,0.10631 -0.14175,0.15061 -0.09745,0.0354 -0.194905,0.009 -0.09745,-0.0354 -0.159469,-0.12403 -0.12403,-0.18605 -0.318936,-0.36324 -0.194906,-0.17718 -0.487264,-0.29236 -0.292359,-0.11517 -0.708748,-0.11517 -0.726467,0 -1.142857,0.3278 -0.416389,0.32779 -0.416389,0.93023 0,0.31894 0.168328,0.58472 0.177187,0.25692 0.549279,0.44296 0.372093,0.18605 0.947951,0.2835 1.142856,0.19491 1.63898,0.70875 0.504982,0.50498 0.504982,1.29347 0,0.46068 -0.159468,0.83278 -0.150609,0.37209 -0.442967,0.62901 -0.2835,0.25692 -0.68217,0.39867 -0.398671,0.13289 -0.885935,0.13289 z"
         style="font-weight:300;-inkscape-font-specification:'Comfortaa Light';fill:#ffffff;fill-opacity:1"
         id="path9218-0-9" />
      <path
         d="m 46.194829,130.43793 q -0.115172,0 -0.194906,-0.0709 -0.07088,-0.0797 -0.07088,-0.1949 V 127.851 l -2.44518,-3.91584 q -0.06202,-0.10631 -0.05316,-0.1949 0.01772,-0.0975 0.07973,-0.15947 0.07088,-0.062 0.177187,-0.062 0.07088,0 0.115171,0.0266 0.05316,0.0266 0.09745,0.0797 l 2.489478,4.05758 h -0.389812 l 2.45404,-3.99557 q 0.06202,-0.0974 0.115172,-0.13289 0.06201,-0.0354 0.141749,-0.0354 0.106313,0 0.168328,0.062 0.06201,0.062 0.07088,0.15947 0.01772,0.0974 -0.0443,0.1949 l -2.445181,3.91584 v 2.32115 q 0,0.11517 -0.07973,0.1949 -0.07088,0.0709 -0.186046,0.0709 z"
         style="font-weight:300;-inkscape-font-specification:'Comfortaa Light';fill:#ffffff;fill-opacity:1"
         id="path9220-5-7" />
      <path
         d="m 51.953401,130.52652 q -0.558139,0 -1.027685,-0.15061 -0.460686,-0.15947 -0.797341,-0.44297 -0.336656,-0.29235 -0.531561,-0.68217 -0.05316,-0.10631 -0.0089,-0.20376 0.05316,-0.0975 0.168328,-0.13289 0.09745,-0.0354 0.194906,0.009 0.09745,0.0443 0.150609,0.14175 0.159468,0.2835 0.416389,0.49612 0.265781,0.21263 0.620155,0.3278 0.363233,0.10631 0.81506,0.10631 0.504983,0 0.868216,-0.16833 0.372093,-0.16833 0.566999,-0.49612 0.203765,-0.3278 0.203765,-0.79734 0,-0.58472 -0.425249,-0.98339 -0.41639,-0.40753 -1.275747,-0.5227 -0.992247,-0.14175 -1.550386,-0.63788 -0.558139,-0.50498 -0.558139,-1.22259 0,-0.5227 0.256921,-0.91251 0.265781,-0.38981 0.735326,-0.60244 0.478405,-0.22148 1.09856,-0.22148 0.460686,0 0.850497,0.15061 0.389812,0.15061 0.68217,0.39867 0.292359,0.2392 0.451827,0.50498 0.06202,0.0975 0.02658,0.21263 -0.02658,0.10631 -0.141749,0.15061 -0.09745,0.0354 -0.194906,0.009 -0.09745,-0.0354 -0.159468,-0.12403 -0.124031,-0.18605 -0.318937,-0.36324 -0.194906,-0.17718 -0.487264,-0.29236 -0.292359,-0.11517 -0.708748,-0.11517 -0.726467,0 -1.142856,0.3278 -0.41639,0.32779 -0.41639,0.93023 0,0.31894 0.168328,0.58472 0.177187,0.25692 0.54928,0.44296 0.372092,0.18605 0.94795,0.2835 1.142856,0.19491 1.63898,0.70875 0.504983,0.50498 0.504983,1.29347 0,0.46068 -0.159469,0.83278 -0.150609,0.37209 -0.442967,0.62901 -0.283499,0.25692 -0.68217,0.39867 -0.398671,0.13289 -0.885935,0.13289 z"
         style="font-weight:300;-inkscape-font-specification:'Comfortaa Light';fill:#ffffff;fill-opacity:1"
         id="path9222-4-5" />
      <path
         d="m 57.224699,130.43793 q -0.115172,0 -0.194906,-0.0709 -0.07087,-0.0797 -0.07087,-0.1949 v -6.65338 h 0.531561 v 6.65338 q 0,0.11517 -0.07973,0.1949 -0.07087,0.0709 -0.186046,0.0709 z m -2.507196,-6.44075 q -0.106312,0 -0.177187,-0.062 -0.06202,-0.0709 -0.06202,-0.17718 0,-0.10632 0.06202,-0.16833 0.07088,-0.0709 0.177187,-0.0709 h 5.014392 q 0.106312,0 0.168328,0.0709 0.07088,0.062 0.07088,0.16833 0,0.10631 -0.07088,0.17718 -0.06202,0.062 -0.168328,0.062 z"
         style="font-weight:300;-inkscape-font-specification:'Comfortaa Light';fill:#ffffff;fill-opacity:1"
         id="path9224-7-2" />
      <path
         d="m 61.255699,130.43793 q -0.115171,0 -0.194905,-0.0709 -0.07088,-0.0797 -0.07088,-0.1949 v -6.38759 q 0,-0.11518 0.07088,-0.18605 0.07973,-0.0797 0.194905,-0.0797 h 4.261348 q 0.106312,0 0.186046,0.0797 0.07973,0.0709 0.07973,0.18605 0,0.10631 -0.07973,0.18604 -0.07973,0.0797 -0.186046,0.0797 H 61.52148 v 2.6578 h 2.932445 q 0.115171,0 0.186046,0.0797 0.07973,0.0709 0.07973,0.18605 0,0.11517 -0.07973,0.19491 -0.07088,0.0797 -0.186046,0.0797 H 61.52148 v 2.65781 h 3.995567 q 0.106312,0 0.186046,0.0797 0.07973,0.0797 0.07973,0.18605 0,0.11517 -0.07973,0.1949 -0.07973,0.0709 -0.186046,0.0709 z"
         style="font-weight:300;-inkscape-font-specification:'Comfortaa Light';fill:#ffffff;fill-opacity:1"
         id="path9226-1-6" />
      <path
         d="m 67.333222,130.43793 q -0.115172,0 -0.194906,-0.0709 -0.07088,-0.0797 -0.07088,-0.1949 v -6.38759 q 0,-0.11518 0.07088,-0.18605 0.07973,-0.0797 0.194906,-0.0797 0.177187,0 0.239202,0.13289 l 3.13621,6.19269 h -0.310077 l 3.091913,-6.19269 q 0.07973,-0.13289 0.239202,-0.13289 0.115172,0 0.186047,0.0797 0.07088,0.0709 0.07088,0.18605 v 6.38759 q 0,0.11517 -0.07088,0.1949 -0.07088,0.0709 -0.186047,0.0709 -0.115171,0 -0.194905,-0.0709 -0.07973,-0.0797 -0.07973,-0.1949 v -5.74972 l 0.13289,0.0443 -2.826133,5.75857 q -0.06202,0.12403 -0.230343,0.12403 -0.159468,0 -0.248062,-0.16832 l -2.86157,-5.71428 0.177187,-0.0443 v 5.74972 q 0,0.11517 -0.07973,0.1949 -0.07088,0.0709 -0.186046,0.0709 z"
         style="font-weight:300;-inkscape-font-specification:'Comfortaa Light';fill:#ffffff;fill-opacity:1"
         id="path9228-3-9" />
      <path
         d="m 77.831558,130.52652 q -0.558139,0 -1.027685,-0.15061 -0.460686,-0.15947 -0.797342,-0.44297 -0.336655,-0.29235 -0.531561,-0.68217 -0.05316,-0.10631 -0.0089,-0.20376 0.05316,-0.0975 0.168328,-0.13289 0.09745,-0.0354 0.194905,0.009 0.09745,0.0443 0.150609,0.14175 0.159469,0.2835 0.41639,0.49612 0.26578,0.21263 0.620154,0.3278 0.363234,0.10631 0.815061,0.10631 0.504983,0 0.868216,-0.16833 0.372093,-0.16833 0.566998,-0.49612 0.203765,-0.3278 0.203765,-0.79734 0,-0.58472 -0.425248,-0.98339 -0.41639,-0.40753 -1.275747,-0.5227 -0.992247,-0.14175 -1.550386,-0.63788 -0.558139,-0.50498 -0.558139,-1.22259 0,-0.5227 0.256921,-0.91251 0.26578,-0.38981 0.735326,-0.60244 0.478405,-0.22148 1.098559,-0.22148 0.460687,0 0.850498,0.15061 0.389811,0.15061 0.68217,0.39867 0.292359,0.2392 0.451827,0.50498 0.06202,0.0975 0.02658,0.21263 -0.02658,0.10631 -0.14175,0.15061 -0.09745,0.0354 -0.194905,0.009 -0.09745,-0.0354 -0.159469,-0.12403 -0.124031,-0.18605 -0.318936,-0.36324 -0.194906,-0.17718 -0.487265,-0.29236 -0.292358,-0.11517 -0.708748,-0.11517 -0.726466,0 -1.142856,0.3278 -0.416389,0.32779 -0.416389,0.93023 0,0.31894 0.168327,0.58472 0.177187,0.25692 0.54928,0.44296 0.372093,0.18605 0.947951,0.2835 1.142856,0.19491 1.638979,0.70875 0.504983,0.50498 0.504983,1.29347 0,0.46068 -0.159468,0.83278 -0.150609,0.37209 -0.442967,0.62901 -0.2835,0.25692 -0.68217,0.39867 -0.398671,0.13289 -0.885935,0.13289 z"
         style="font-weight:300;-inkscape-font-specification:'Comfortaa Light';fill:#ffffff;fill-opacity:1"
         id="path9230-1-1" />
    </g>
    <g
       aria-label="CLOUDYNE"
       id="text5123-3-5-7-6-5-5-1-8-9-9"
       style="font-weight:bold;font-size:8.85935px;font-family:Comfortaa;-inkscape-font-specification:'Comfortaa Bold';text-align:end;text-anchor:end;fill:#ffffff;fill-opacity:1;stroke-width:0.402698;stroke-linecap:round;stroke-linejoin:bevel;stroke-dashoffset:1.69739"
       transform="translate(218.1214,-7.9977551)">
      <path
         d="m 31.339504,120.50005 q -0.708748,0 -1.337762,-0.27464 -0.620154,-0.2835 -1.098559,-0.77077 -0.478405,-0.49612 -0.753045,-1.13399 -0.27464,-0.64674 -0.27464,-1.3732 0,-0.71761 0.265781,-1.35548 0.26578,-0.64674 0.735326,-1.134 0.478405,-0.49612 1.107419,-0.77076 0.629014,-0.2835 1.35548,-0.2835 0.611295,0 1.160575,0.1949 0.54928,0.19491 1.027685,0.59358 0.07973,0.062 0.07973,0.17719 0,0.10631 -0.07088,0.1949 -0.07088,0.0797 -0.194906,0.0797 -0.03544,0 -0.07087,-0.009 -0.03544,-0.0177 -0.07088,-0.0354 -0.03544,-0.0266 -0.07973,-0.062 -0.354374,-0.31893 -0.806201,-0.46068 -0.451827,-0.14175 -0.974529,-0.14175 -0.593576,0 -1.125137,0.24806 -0.531561,0.2392 -0.939091,0.66445 -0.40753,0.41639 -0.637874,0.95681 -0.230343,0.54042 -0.230343,1.14286 0,0.62015 0.230343,1.16943 0.230344,0.54928 0.629014,0.96567 0.40753,0.41639 0.939091,0.65559 0.531561,0.23035 1.133997,0.23035 0.522702,0 0.974529,-0.15947 0.460686,-0.15947 0.859357,-0.48727 0.07088,-0.062 0.168327,-0.0443 0.09745,0.0177 0.168328,0.0886 0.07088,0.0709 0.07088,0.18605 0,0.0532 -0.0089,0.0975 -0.0089,0.0443 -0.05316,0.0886 -0.434108,0.43411 -1.009965,0.60244 -0.566999,0.15947 -1.169435,0.15947 z"
         style="font-weight:300;-inkscape-font-specification:'Comfortaa Light';fill:#ffffff;fill-opacity:1"
         id="path9201-4-0" />
      <path
         d="m 35.290776,120.41145 q -0.106312,0 -0.186046,-0.0709 -0.07973,-0.0797 -0.07973,-0.19491 v -6.38759 q 0,-0.11517 0.07973,-0.18605 0.07973,-0.0797 0.186046,-0.0797 0.115172,0 0.186047,0.0797 0.07973,0.0709 0.07973,0.18605 v 6.17497 h 3.641193 q 0.124031,0 0.194906,0.0709 0.07087,0.062 0.07087,0.16833 0,0.10631 -0.07087,0.17719 -0.07088,0.062 -0.194906,0.062 z"
         style="font-weight:300;-inkscape-font-specification:'Comfortaa Light';fill:#ffffff;fill-opacity:1"
         id="path9203-9-9" />
      <path
         d="m 43.149018,120.50005 q -0.761904,0 -1.408636,-0.26578 -0.646733,-0.26578 -1.133997,-0.74419 -0.478405,-0.48726 -0.744186,-1.134 -0.26578,-0.64673 -0.26578,-1.40863 0,-0.76191 0.26578,-1.39978 0.265781,-0.64673 0.744186,-1.12514 0.487264,-0.48726 1.133997,-0.75304 0.646732,-0.26578 1.408636,-0.26578 0.761904,0 1.399778,0.26578 0.646732,0.26578 1.125137,0.75304 0.487264,0.47841 0.753045,1.12514 0.26578,0.63787 0.26578,1.39978 0,0.7619 -0.26578,1.40863 -0.265781,0.64674 -0.753045,1.134 -0.478405,0.47841 -1.125137,0.74419 -0.637874,0.26578 -1.399778,0.26578 z m 0,-0.53156 q 0.637874,0 1.187153,-0.22149 0.54928,-0.23034 0.95681,-0.63787 0.41639,-0.41639 0.637873,-0.96567 0.230343,-0.54928 0.230343,-1.19601 0,-0.63788 -0.230343,-1.18716 -0.221483,-0.54928 -0.637873,-0.95681 -0.40753,-0.41638 -0.95681,-0.63787 -0.549279,-0.23034 -1.187153,-0.23034 -0.646732,0 -1.196012,0.23034 -0.54928,0.22149 -0.965669,0.63787 -0.40753,0.40753 -0.637873,0.95681 -0.221484,0.54928 -0.221484,1.18716 0,0.64673 0.221484,1.19601 0.230343,0.54928 0.637873,0.96567 0.416389,0.40753 0.965669,0.63787 0.54928,0.22149 1.196012,0.22149 z"
         style="font-weight:300;-inkscape-font-specification:'Comfortaa Light';fill:#ffffff;fill-opacity:1"
         id="path9205-7-8" />
      <path
         d="m 50.768054,120.5532 q -0.779623,0 -1.382058,-0.30122 -0.593577,-0.31007 -0.939092,-0.85049 -0.336655,-0.54928 -0.336655,-1.24917 v -4.39424 q 0,-0.12403 0.07087,-0.1949 0.07973,-0.0709 0.194906,-0.0709 0.124031,0 0.194905,0.0709 0.07088,0.0709 0.07088,0.1949 v 4.39424 q 0,0.54928 0.265781,0.97453 0.27464,0.41639 0.753044,0.65559 0.487265,0.2392 1.107419,0.2392 0.629014,0 1.107419,-0.2392 0.478405,-0.2392 0.753045,-0.65559 0.27464,-0.42525 0.27464,-0.97453 v -4.39424 q 0,-0.12403 0.07087,-0.1949 0.07973,-0.0709 0.194906,-0.0709 0.124031,0 0.194906,0.0709 0.07088,0.0709 0.07088,0.1949 v 4.39424 q 0,0.69989 -0.345515,1.24917 -0.336655,0.54042 -0.939091,0.85049 -0.602436,0.30122 -1.382059,0.30122 z"
         style="font-weight:300;-inkscape-font-specification:'Comfortaa Light';fill:#ffffff;fill-opacity:1"
         id="path9207-5-0" />
      <path
         d="m 55.472376,120.41145 q -0.115172,0 -0.194906,-0.0709 -0.07088,-0.0797 -0.07088,-0.19491 v -6.38759 q 0,-0.12403 0.07088,-0.1949 0.07973,-0.0709 0.194906,-0.0709 h 1.594683 q 0.761904,0 1.390918,0.25692 0.637873,0.24806 1.098559,0.71761 0.469546,0.46069 0.717607,1.0897 0.256922,0.62901 0.256922,1.39092 0,0.7619 -0.256922,1.39977 -0.248061,0.62902 -0.717607,1.09856 -0.460686,0.46069 -1.098559,0.71761 -0.629014,0.24806 -1.390918,0.24806 z m 0.26578,-0.4784 h 1.328903 q 0.859357,0 1.514948,-0.38981 0.664452,-0.38981 1.036544,-1.06313 0.380953,-0.67331 0.380953,-1.53266 0,-0.85936 -0.380953,-1.52381 -0.372092,-0.67331 -1.036544,-1.06312 -0.655591,-0.38981 -1.514948,-0.38981 h -1.328903 z"
         style="font-weight:300;-inkscape-font-specification:'Comfortaa Light';fill:#ffffff;fill-opacity:1"
         id="path9209-6-7" />
      <path
         d="m 63.516655,120.41145 q -0.115172,0 -0.194906,-0.0709 -0.07087,-0.0797 -0.07087,-0.19491 v -2.32115 l -2.44518,-3.91583 q -0.06202,-0.10631 -0.05316,-0.19491 0.01772,-0.0974 0.07973,-0.15946 0.07087,-0.062 0.177187,-0.062 0.07088,0 0.115171,0.0266 0.05316,0.0266 0.09745,0.0797 l 2.489478,4.05759 h -0.389812 l 2.45404,-3.99557 q 0.06202,-0.0974 0.115172,-0.13289 0.06202,-0.0354 0.141749,-0.0354 0.106313,0 0.168328,0.062 0.06202,0.062 0.07088,0.15946 0.01772,0.0975 -0.0443,0.19491 l -2.445181,3.91583 v 2.32115 q 0,0.11517 -0.07973,0.19491 -0.07088,0.0709 -0.186046,0.0709 z"
         style="font-weight:300;-inkscape-font-specification:'Comfortaa Light';fill:#ffffff;fill-opacity:1"
         id="path9211-8-0" />
      <path
         d="m 67.46792,120.41145 q -0.115172,0 -0.194906,-0.0709 -0.07087,-0.0797 -0.07087,-0.19491 v -6.38759 q 0,-0.11517 0.07087,-0.18605 0.07973,-0.0797 0.194906,-0.0797 0.124031,0 0.203765,0.0886 l 4.50055,5.85603 v -5.67884 q 0,-0.11517 0.07088,-0.18605 0.07973,-0.0797 0.194905,-0.0797 0.106313,0 0.186047,0.0797 0.07973,0.0709 0.07973,0.18605 v 6.38759 q 0,0.11517 -0.07973,0.19491 -0.07973,0.0709 -0.186047,0.0709 -0.06201,0 -0.115171,-0.0177 -0.0443,-0.0266 -0.07973,-0.062 L 67.73371,114.4669 v 5.67884 q 0,0.11517 -0.07973,0.19491 -0.07087,0.0709 -0.186046,0.0709 z"
         style="font-weight:300;-inkscape-font-specification:'Comfortaa Light';fill:#ffffff;fill-opacity:1"
         id="path9213-4-8" />
      <path
         d="m 74.741438,120.41145 q -0.115172,0 -0.194906,-0.0709 -0.07088,-0.0797 -0.07088,-0.19491 v -6.38759 q 0,-0.11517 0.07088,-0.18605 0.07973,-0.0797 0.194906,-0.0797 h 4.261347 q 0.106312,0 0.186046,0.0797 0.07974,0.0709 0.07974,0.18605 0,0.10631 -0.07974,0.18605 -0.07973,0.0797 -0.186046,0.0797 h -3.995567 v 2.65781 h 2.932445 q 0.115172,0 0.186046,0.0797 0.07973,0.0709 0.07973,0.18605 0,0.11517 -0.07973,0.1949 -0.07087,0.0797 -0.186046,0.0797 h -2.932445 v 2.6578 h 3.995567 q 0.106312,0 0.186046,0.0797 0.07974,0.0797 0.07974,0.18604 0,0.11517 -0.07974,0.19491 -0.07973,0.0709 -0.186046,0.0709 z"
         style="font-weight:300;-inkscape-font-specification:'Comfortaa Light';fill:#ffffff;fill-opacity:1"
         id="path9215-9-1" />
    </g>
    <path
       id="rect6879-1-7-6-6-5-2-1-5-7-4-1-2-1-5-8-8-5-5-0-7"
       style="display:inline;fill:url(#linearGradient1567);fill-opacity:1;stroke:#000000;stroke-width:0.702862;stroke-linecap:round;stroke-dasharray:none;stroke-dashoffset:1.69739;stroke-opacity:1"
       d="m 181.52246,95.408142 c 2.40744,-6.162313 0.86582,-13.168111 -3.90611,-17.750603 -4.77193,-4.582443 -11.83438,-5.839131 -17.89412,-3.184078 -6.05977,2.655062 -9.92347,8.69898 -9.78948,15.313496 0.13399,6.61459 4.23931,12.497163 10.40158,14.904643 l 15.40806,5.89303 z"
       transform="translate(96.637306,-8.6585727)" />
    <path
       id="rect6821-0-7-2-81-8"
       style="fill:url(#linearGradient1569);fill-opacity:1;stroke:#000000;stroke-width:0.702862;stroke-linecap:round;stroke-linejoin:bevel;stroke-dasharray:none;stroke-dashoffset:1.69739;stroke-opacity:1"
       d="m 147.91961,84.166153 c 2.40922,0.102369 4.70242,1.062873 6.46545,2.708041 l 0.007,-0.0074 c 7.2e-4,-6.63e-4 0.002,-3.89e-4 0.003,4.81e-4 l 0.24832,0.24831 23.56794,23.567935 c 4.7e-4,4.8e-4 6.6e-4,0.002 0,0.002 l -28.73509,-6.7e-4 -9.12424,-9.27757 -0.24832,-0.24833 c -4.7e-4,-4.8e-4 -6.6e-4,-0.002 0,-0.002 l 0.003,-0.003 c -2.37642,-2.548423 -3.27229,-6.14134 -2.37055,-9.507145 0.45912,-1.71344 1.36119,-3.275844 2.61552,-4.530175 v 6.62e-4 c 1.25432,-1.254332 2.81673,-2.156402 4.53017,-2.615519 0.98985,-0.264582 2.01418,-0.377074 3.03786,-0.333644 z"
       transform="translate(96.637306,-8.6585727)" />
    <path
       id="rect6821-0-2-4-4"
       style="fill:url(#linearGradient1571);fill-opacity:1;stroke:#000000;stroke-width:0.702862;stroke-linecap:round;stroke-linejoin:bevel;stroke-dasharray:none;stroke-dashoffset:1.69739;stroke-opacity:1"
       d="m 187.52461,77.377827 c -3.02613,0.128582 -5.90654,1.335033 -8.12101,3.401466 l -0.009,-0.0093 c -8.8e-4,-8.28e-4 -0.002,-4.8e-4 -0.004,6.05e-4 l -0.3119,0.311892 -29.60278,29.60277 c -6e-4,6.1e-4 -8.3e-4,0.003 0,0.003 l 36.09304,-8.3e-4 11.4606,-11.653205 0.3119,-0.311917 c 6e-4,-6.05e-4 8.3e-4,-0.0033 0,-0.0033 l -0.004,-0.0042 c 2.98493,-3.200971 4.11021,-7.713896 2.97756,-11.941548 -0.57668,-2.152191 -1.70973,-4.114671 -3.28525,-5.69018 v 8.29e-4 c -1.57551,-1.575518 -3.53798,-2.708571 -5.69018,-3.285254 -1.24331,-0.332334 -2.52993,-0.473632 -3.81573,-0.419077 z"
       transform="translate(96.637306,-8.6585727)" />
    <path
       id="rect6821-2-70-8"
       style="fill:url(#linearGradient1573);fill-opacity:1;stroke:#000000;stroke-width:0.702862;stroke-linecap:round;stroke-linejoin:bevel;stroke-dasharray:none;stroke-dashoffset:1.69739;stroke-opacity:1"
       d="m 202.18151,86.995107 c -2.15291,0.09148 -4.20214,0.949794 -5.7776,2.419932 l -0.006,-0.0066 c -6.6e-4,-6.05e-4 -0.002,-3.4e-4 -0.003,4.31e-4 l -0.2219,0.221899 -21.06057,21.060561 c -4.2e-4,4.3e-4 -6.1e-4,0.003 0,0.003 l 25.67799,-8.3e-4 8.15353,-8.29055 0.2219,-0.22191 c 4.3e-4,-4.3e-4 6.1e-4,-0.002 0,-0.002 l -0.002,-0.003 c 2.1236,-2.277283 2.92416,-5.487953 2.11835,-8.495674 -0.41027,-1.531151 -1.21637,-2.927337 -2.33725,-4.048213 v 8.28e-4 c -1.12089,-1.120915 -2.51708,-1.927015 -4.04823,-2.337289 -0.88454,-0.23643 -1.79989,-0.33696 -2.71466,-0.298148 z"
       transform="translate(96.637306,-8.6585727)" />
  </g>
</svg>
