<?xml version="1.0" encoding="UTF-8" standalone="no"?>
<!-- Created with Inkscape (http://www.inkscape.org/) -->

<svg
   width="74.901123mm"
   height="38.298199mm"
   viewBox="0 0 74.901122 38.298199"
   version="1.1"
   id="svg3487"
   xmlns:xlink="http://www.w3.org/1999/xlink"
   xmlns="http://www.w3.org/2000/svg"
   xmlns:svg="http://www.w3.org/2000/svg">
  <defs
     id="defs3484">
    <linearGradient
       id="linearGradient8022">
      <stop
         style="stop-color:#fc8934;stop-opacity:1;"
         offset="0"
         id="stop8018" />
      <stop
         style="stop-color:#fb651c;stop-opacity:1;"
         offset="0.61949688"
         id="stop8020" />
    </linearGradient>
    <linearGradient
       id="linearGradient7002">
      <stop
         style="stop-color:#013aaf;stop-opacity:1;"
         offset="0"
         id="stop6998" />
      <stop
         style="stop-color:#24a8ef;stop-opacity:1;"
         offset="1"
         id="stop7000" />
    </linearGradient>
    <linearGradient
       id="linearGradient6958">
      <stop
         style="stop-color:#fb651c;stop-opacity:1;"
         offset="0"
         id="stop6954" />
      <stop
         style="stop-color:#fc8833;stop-opacity:1;"
         offset="1"
         id="stop6956" />
    </linearGradient>
    <linearGradient
       xlink:href="#linearGradient8022"
       id="linearGradient23617"
       gradientUnits="userSpaceOnUse"
       gradientTransform="matrix(0.19226875,-0.50391152,0.50391152,0.19226875,-42.414221,191.26793)"
       x1="130.09738"
       y1="95.399918"
       x2="114.35001"
       y2="111.59956" />
    <linearGradient
       xlink:href="#linearGradient7002"
       id="linearGradient23619"
       gradientUnits="userSpaceOnUse"
       gradientTransform="matrix(-0.92766388,2.8661601e-4,2.8661601e-4,0.92766388,-6.228725,-63.018694)"
       x1="-14.204238"
       y1="246.15352"
       x2="-40.387943"
       y2="239.04745" />
    <linearGradient
       xlink:href="#linearGradient7002"
       id="linearGradient23621"
       gradientUnits="userSpaceOnUse"
       gradientTransform="matrix(1.1652029,-3.6000736e-4,3.6000736e-4,1.1652029,86.837199,-123.43917)"
       x1="-45.477989"
       y1="259.71884"
       x2="-23.800285"
       y2="234.75996" />
    <linearGradient
       xlink:href="#linearGradient6958"
       id="linearGradient23623"
       gradientUnits="userSpaceOnUse"
       gradientTransform="matrix(0.8289708,-2.5612327e-4,2.5612327e-4,0.8289708,92.928678,-37.949149)"
       x1="-26.116524"
       y1="246.40085"
       x2="-23.800285"
       y2="234.75996" />
  </defs>
  <g
     id="layer4"
     transform="translate(-6.6644343,-134.88702)">
    <path
       id="rect6879-1-7-6-6-5-2-1-5-7-4-1-2-1-5-8-8-5-5-0-4"
       style="display:inline;fill:url(#linearGradient23617);fill-opacity:1;stroke:#ffffff;stroke-width:0.702862;stroke-linecap:round;stroke-dasharray:none;stroke-dashoffset:1.69739;stroke-opacity:1"
       d="m 51.147097,157.54348 c 2.40553,-6.16306 0.861745,-13.16838 -3.911595,-17.7494 -4.773348,-4.58096 -11.836188,-5.83547 -17.895101,-3.17855 -6.058952,2.65694 -9.920782,8.70205 -9.784753,15.31653 0.13603,6.61455 4.243171,12.49585 10.40619,14.90142 l 15.409875,5.88827 z" />
    <path
       id="rect6821-0-7-2-81-2"
       style="fill:url(#linearGradient23619);fill-opacity:1;stroke:#ffffff;stroke-width:0.702862;stroke-linecap:round;stroke-linejoin:bevel;stroke-dasharray:none;stroke-dashoffset:1.69739;stroke-opacity:1"
       d="m 17.540772,146.31187 c 2.409251,0.10163 4.702751,1.06143 6.466285,2.70604 l 0.0072,-0.007 c 7.26e-4,-6.6e-4 0.0018,-3.9e-4 0.0028,4.8e-4 l 0.248399,0.24823 23.575218,23.56066 c 4.76e-4,4.8e-4 6.6e-4,0.002 0,0.002 l -28.735087,0.008 -9.1271024,-9.27475 -0.248396,-0.24826 c -4.78e-4,-4.8e-4 -6.61e-4,-0.002 -1e-6,-0.002 l 0.0028,-0.003 c -2.377207,-2.54768 -3.274193,-6.14033 -2.37349,-9.50641 0.458594,-1.71359 1.360174,-3.27626 2.614118,-4.53098 v 6.6e-4 c 1.2539394,-1.25472 2.8160644,-2.15727 4.5293684,-2.61692 0.989766,-0.26489 2.014061,-0.37769 3.037751,-0.33458 z" />
    <path
       id="rect6821-0-2-4-5"
       style="fill:url(#linearGradient23621);fill-opacity:1;stroke:#ffffff;stroke-width:0.702862;stroke-linecap:round;stroke-linejoin:bevel;stroke-dasharray:none;stroke-dashoffset:1.69739;stroke-opacity:1"
       d="m 57.143669,139.51131 c -3.026089,0.12952 -5.906121,1.33686 -8.11995,3.40397 l -0.0091,-0.009 c -8.85e-4,-8.3e-4 -0.0022,-4.8e-4 -0.0035,6.1e-4 l -0.31181,0.31198 -29.593633,29.61192 c -5.98e-4,6.1e-4 -8.28e-4,0.003 1e-6,0.003 l 36.093036,-0.012 11.457001,-11.65675 0.31181,-0.31201 c 5.99e-4,-6.1e-4 8.29e-4,-0.003 -10e-7,-0.003 l -0.0035,-0.004 c 2.983941,-3.20189 4.107822,-7.71517 2.97387,-11.94247 -0.577353,-2.15201 -1.711003,-4.11414 -3.28701,-5.68916 l 1e-6,8.3e-4 c -1.575997,-1.57504 -3.538823,-2.70748 -5.691194,-3.2835 -1.243413,-0.33195 -2.530077,-0.47285 -3.81586,-0.4179 z" />
    <path
       id="rect6821-2-70-5"
       style="fill:url(#linearGradient23623);fill-opacity:1;stroke:#ffffff;stroke-width:0.702862;stroke-linecap:round;stroke-linejoin:bevel;stroke-dasharray:none;stroke-dashoffset:1.69739;stroke-opacity:1"
       d="m 71.803543,149.12406 c -2.152876,0.0922 -4.201843,0.95109 -5.776847,2.42172 l -0.0065,-0.007 c -6.62e-4,-6.1e-4 -0.0016,-3.4e-4 -0.0026,4.3e-4 l -0.221833,0.22197 -21.054063,21.06707 c -4.25e-4,4.3e-4 -6.1e-4,0.003 10e-7,0.003 l 25.677991,-0.009 8.150961,-8.29307 0.221831,-0.22197 c 4.31e-4,-4.3e-4 6.13e-4,-0.002 -10e-7,-0.002 l -0.0025,-0.003 c 2.122896,-2.27794 2.922466,-5.48886 2.115727,-8.49633 -0.410747,-1.53102 -1.21727,-2.92696 -2.3385,-4.04749 v 8.3e-4 c -1.121234,-1.12057 -2.517671,-1.92624 -4.048948,-2.33604 -0.884612,-0.23616 -1.799995,-0.33641 -2.714751,-0.29732 z" />
  </g>
</svg>
